0
SECTION
2
HEADER
9
$INSUNITS
70
4
9
$ACADVER
1
AC1014
9
$HANDSEED
5
FFFF
0
ENDSEC
0
SECTION
2
TABLES
0
TABLE
2
VPORT
5
8
100
AcDbSymbolTable
0
ENDTAB
0
TABLE
2
LTYPE
5
5
100
AcDbSymbolTable
0
LTYPE
5
14
100
AcDbSymbolTableRecord
100
AcDbLinetypeTableRecord
2
BYBLOCK
70
0
0
LTYPE
5
15
100
AcDbSymbolTableRecord
100
AcDbLinetypeTableRecord
2
BYLAYER
70
0
0
ENDTAB
0
TABLE
2
LAYER
5
2
100
AcDbSymbolTable
70
2
0
LAYER
5
50
100
AcDbSymbolTableRecord
100
AcDbLayerTableRecord
2
0
70
0
6
CONTINUOUS
0
ENDTAB
0
TABLE
2
STYLE
5
3
100
AcDbSymbolTable
70
1
0
STYLE
5
11
100
AcDbSymbolTableRecord
100
AcDbTextStyleTableRecord
2
STANDARD
70
0
0
ENDTAB
0
TABLE
2
VIEW
5
6
100
AcDbSymbolTable
70
0
0
ENDTAB
0
TABLE
2
UCS
5
7
100
AcDbSymbolTable
70
0
0
ENDTAB
0
TABLE
2
APPID
5
9
100
AcDbSymbolTable
70
2
0
APPID
5
12
100
AcDbSymbolTableRecord
100
AcDbRegAppTableRecord
2
ACAD
70
0
0
ENDTAB
0
TABLE
2
DIMSTYLE
5
A
100
AcDbSymbolTable
70
1
0
ENDTAB
0
TABLE
2
BLOCK_RECORD
5
1
100
AcDbSymbolTable
70
1
0
BLOCK_RECORD
5
1F
100
AcDbSymbolTableRecord
100
AcDbBlockTableRecord
2
*MODEL_SPACE
0
BLOCK_RECORD
5
1B
100
AcDbSymbolTableRecord
100
AcDbBlockTableRecord
2
*PAPER_SPACE
0
ENDTAB
0
ENDSEC
0
SECTION
2
BLOCKS
0
BLOCK
5
20
100
AcDbEntity
100
AcDbBlockBegin
2
*MODEL_SPACE
0
ENDBLK
5
21
100
AcDbEntity
100
AcDbBlockEnd
0
BLOCK
5
1C
100
AcDbEntity
100
AcDbBlockBegin
2
*PAPER_SPACE
0
ENDBLK
5
1D
100
AcDbEntity
100
AcDbBlockEnd
0
ENDSEC
0
SECTION
2
ENTITIES
0
LINE
5
100
100
AcDbEntity
8
0
100
AcDbLine
10
0
20
0
30
0
11
130
21
0
31
0
0
LINE
5
101
100
AcDbEntity
8
0
100
AcDbLine
10
130
20
0
30
0
11
130
21
-82.999999999999986
31
0
0
LINE
5
102
100
AcDbEntity
8
0
100
AcDbLine
10
130
20
-82.999999999999986
30
0
11
37.099999999999994
21
-83
31
0
0
LINE
5
103
100
AcDbEntity
8
0
100
AcDbLine
10
37.099999999999994
20
-83
30
0
11
37.099999999999994
21
-95
31
0
0
LINE
5
104
100
AcDbEntity
8
0
100
AcDbLine
10
37.099999999999994
20
-95
30
0
11
58.999999999999993
21
-95
31
0
0
LINE
5
105
100
AcDbEntity
8
0
100
AcDbLine
10
58.999999999999993
20
-95
30
0
11
58.999999999999993
21
-138.5
31
0
0
LINE
5
106
100
AcDbEntity
8
0
100
AcDbLine
10
58.999999999999993
20
-138.5
30
0
11
-8.4806790840954216e-15
21
-138.5
31
0
0
LINE
5
107
100
AcDbEntity
8
0
100
AcDbLine
10
-8.4806790840954216e-15
20
-138.5
30
0
11
0
21
0
31
0
0
LINE
5
108
100
AcDbEntity
8
0
100
AcDbLine
10
-5.2049415953376098e-15
20
-43.500000000000007
30
0
11
16.499999999999993
21
-43.500000000000007
31
0
0
LINE
5
109
100
AcDbEntity
8
0
100
AcDbLine
10
16.499999999999993
20
-43.500000000000007
30
0
11
16.499999999999996
21
-55.500000000000014
31
0
0
LINE
5
110
100
AcDbEntity
8
0
100
AcDbLine
10
16.499999999999996
20
-55.500000000000014
30
0
11
-3.3983948676339039e-15
21
-55.500000000000007
31
0
0
LINE
5
111
100
AcDbEntity
8
0
100
AcDbLine
10
-3.7677359595038182e-15
20
-120.5
30
0
11
24.499999999999993
21
-120.5
31
0
0
LINE
5
112
100
AcDbEntity
8
0
100
AcDbLine
10
24.499999999999993
20
-120.5
30
0
11
24.499999999999996
21
-94.500000000000014
31
0
0
LINE
5
113
100
AcDbEntity
8
0
100
AcDbLine
10
24.499999999999996
20
-94.500000000000014
30
0
11
-5.7864561259712429e-15
21
-94.500000000000014
31
0
0
LWPOLYLINE
5
114
100
AcDbEntity
8
0
100
AcDbPolyline
90
4
70
1
43
0.0
10
17.29599392371366
20
-103.56261672983288
10
4.9886657691450518
20
-103.56261672983288
10
4.9886657691450509
20
-113.16073133287864
10
17.29599392371366
20
-113.16073133287864
0
LWPOLYLINE
5
115
100
AcDbEntity
8
0
100
AcDbPolyline
90
4
70
1
43
0.0
10
15.792336529329649
20
-47.499603854714763
10
1.1707544980796492
20
-47.499603854714763
10
1.1707544980796492
20
-52.499603854714763
10
15.792336529329649
20
-52.499603854714763
0
CIRCLE
5
116
100
AcDbEntity
8
0
100
AcDbCircle
10
7.9999999999999911
20
-3.5000000000000004
30
0
40
3.5
0
CIRCLE
5
117
100
AcDbEntity
8
0
100
AcDbCircle
10
7.9999999999999911
20
-3.5000000000000004
30
0
40
1.6500000000000001
0
CIRCLE
5
118
100
AcDbEntity
8
0
100
AcDbCircle
10
126.5
20
-3.5000000000000004
30
0
40
3.4999999999999969
0
CIRCLE
5
119
100
AcDbEntity
8
0
100
AcDbCircle
10
126.5
20
-79.500000000000014
30
0
40
3.4999999999999964
0
CIRCLE
5
120
100
AcDbEntity
8
0
100
AcDbCircle
10
7.9999999999999911
20
-79.5
30
0
40
3.4999999999999991
0
CIRCLE
5
121
100
AcDbEntity
8
0
100
AcDbCircle
10
10.499999999999991
20
-89.5
30
0
40
3.4999999999999947
0
CIRCLE
5
122
100
AcDbEntity
8
0
100
AcDbCircle
10
31.499999999999993
20
-132
30
0
40
3.5000000000000013
0
CIRCLE
5
123
100
AcDbEntity
8
0
100
AcDbCircle
10
9.999999999999984
20
-135.00000000000003
30
0
40
3.5000000000000058
0
CIRCLE
5
124
100
AcDbEntity
8
0
100
AcDbCircle
10
9.999999999999984
20
-135.00000000000003
30
0
40
1.6499999999999919
0
CIRCLE
5
125
100
AcDbEntity
8
0
100
AcDbCircle
10
31.499999999999993
20
-132
30
0
40
1.6499999999999935
0
CIRCLE
5
126
100
AcDbEntity
8
0
100
AcDbCircle
10
10.499999999999991
20
-89.5
30
0
40
1.6500000000000017
0
CIRCLE
5
127
100
AcDbEntity
8
0
100
AcDbCircle
10
7.9999999999999911
20
-79.5
30
0
40
1.6500000000000021
0
CIRCLE
5
128
100
AcDbEntity
8
0
100
AcDbCircle
10
126.5
20
-3.5000000000000004
30
0
40
1.6500000000000012
0
CIRCLE
5
129
100
AcDbEntity
8
0
100
AcDbCircle
10
126.5
20
-79.500000000000014
30
0
40
1.6500000000000021
0
ENDSEC
0
SECTION
2
OBJECTS
0
DICTIONARY
5
C
100
AcDbDictionary
3
ACAD_GROUP
350
D
3
ACAD_MLINESTYLE
350
17
0
DICTIONARY
5
D
100
AcDbDictionary
0
DICTIONARY
5
1A
330
C
100
AcDbDictionary
0
DICTIONARY
5
17
100
AcDbDictionary
0
ENDSEC
0
EOF
